<?xml version="1.0" encoding="iso-8859-1"?>
<!-- Generator: Adobe Illustrator 19.0.0, SVG Export Plug-In . SVG Version: 6.00 Build 0)  -->
<svg version="1.1" id="Capa_1" xmlns="http://www.w3.org/2000/svg" x="0px"
     y="0px"
     viewBox="0 0 489 489" style="enable-background:new 0 0 489 489;" xml:space="preserve">
<g>
			<path d="M458.4,381.25H489v23.3c0,20.9-16.9,37.9-37.9,37.9h-36.3H74.1H37.9c-20.9,0-37.9-16.9-37.9-37.9v-23.3h30.6h1.6v-240.5
				c0-18.9,15.3-34.3,34.3-34.3h82.7v46.8H79v228h119.7v2.3c0,7.2,5.8,13,13,13h65.7c7.2,0,13-5.8,13-13v-2.3h119.7v-80.9h46.8v80.9
				H458.4z M252.4,208.95h83.9c3.3,0,6-2.7,6-6v-13.1c0-3.3-2.7-6-6-6h-83.9c-3.3,0-6,2.7-6,6v13.1
				C246.5,206.25,249.1,208.95,252.4,208.95z M252.4,169.25h167.9c3.3,0,6-2.7,6-6v-13.1c0-3.3-2.7-6-6-6H252.4c-3.3,0-6,2.7-6,6
				v13.1C246.5,166.55,249.1,169.25,252.4,169.25z M218.5,303.85v-38.8c-19.8-4.1-34.8-21.8-34.8-42.8v-132
				c0-24.1,19.6-43.7,43.7-43.7h217.8c24.1,0,43.7,19.6,43.7,43.7v132c0,24.1-19.6,43.7-43.7,43.7H296l-49.5,49.5
				c-3.1,3.1-7.2,4.8-11.6,4.8c-4.2,0-8.2-1.6-11.2-4.4C220.4,312.75,218.5,308.35,218.5,303.85z M287.6,85.05
				c0,6.6,5.3,11.9,11.9,11.9s11.9-5.3,11.9-11.9s-5.3-11.9-11.9-11.9S287.6,78.45,287.6,85.05z M252.8,85.05
				c0,6.6,5.3,11.9,11.9,11.9c5.7,0,10.5-4.1,11.7-9.5c0.2-0.8,0.2-1.6,0.2-2.4s-0.1-1.6-0.2-2.4c-1.1-5.4-5.9-9.5-11.7-9.5
				C258.2,73.15,252.8,78.45,252.8,85.05z M218.1,85.05c0,6.6,5.3,11.9,11.9,11.9c6.6,0,11.9-5.3,11.9-11.9s-5.3-11.9-11.9-11.9
				C223.4,73.15,218.1,78.45,218.1,85.05z M227.5,235.45h21.6v34.3l34.3-34.3h162c7.3,0,13.2-5.9,13.2-13.2v-103.4H214.2v103.4
				C214.2,229.55,220.2,235.45,227.5,235.45z"/>
		</g>
</svg>
